<?xml version="1.0" standalone="no"?>
<!DOCTYPE svg PUBLIC "-//W3C//DTD SVG 20010904//EN"
 "http://www.w3.org/TR/2001/REC-SVG-20010904/DTD/svg10.dtd">
<svg version="1.0" xmlns="http://www.w3.org/2000/svg"
 width="1024.000000pt" height="1024.000000pt" viewBox="0 0 1024.000000 1024.000000"
 preserveAspectRatio="xMidYMid meet">
<metadata>
Created by potrace 1.11, written by Peter Selinger 2001-2013
</metadata>
<g transform="translate(0.000000,1024.000000) scale(0.100000,-0.100000)"
fill="#000000" stroke="none">
<path d="M7120 10223 c-119 -18 -140 -23 -220 -44 -457 -124 -901 -396 -1185
-724 -33 -39 -62 -72 -65 -75 -18 -16 -107 -139 -162 -225 -179 -276 -287
-551 -343 -870 -17 -98 -24 -372 -12 -440 5 -26 39 -32 161 -29 437 12 861
214 1246 594 275 272 449 525 600 875 57 133 118 392 135 575 6 72 7 294 1
325 -3 11 -5 28 -5 37 -1 20 -29 20 -151 1z"/>
<path d="M7017 7814 c-1 -1 -42 -4 -92 -7 -257 -17 -602 -106 -1040 -267 -212
-78 -536 -182 -612 -196 -132 -24 -293 16 -788 196 -348 127 -617 204 -781
225 -27 4 -76 10 -109 15 -60 8 -309 5 -375 -5 -19 -2 -57 -7 -85 -11 -44 -5
-71 -10 -174 -30 -443 -89 -907 -336 -1251 -668 -77 -74 -153 -154 -204 -216
-89 -108 -246 -338 -246 -360 0 -5 -4 -10 -10 -10 -5 0 -10 -5 -10 -10 0 -6
-20 -46 -45 -90 -137 -242 -250 -567 -320 -920 -14 -75 -14 -71 -29 -190 -25
-189 -31 -292 -31 -560 0 -216 9 -431 20 -490 1 -8 6 -49 10 -90 3 -41 8 -86
10 -100 4 -29 56 -328 60 -350 23 -113 40 -189 61 -269 13 -53 26 -103 28
-111 40 -160 193 -622 241 -727 8 -17 15 -33 15 -36 0 -14 130 -309 196 -443
138 -285 288 -537 472 -799 58 -82 110 -154 114 -160 5 -5 41 -53 80 -105 454
-605 822 -909 1218 -1007 74 -18 310 -26 380 -13 25 4 63 11 84 14 86 14 328
83 441 126 364 141 570 202 820 245 22 3 123 8 225 10 178 4 328 -8 435 -34
22 -6 54 -12 70 -15 85 -15 279 -79 490 -161 153 -60 348 -122 440 -140 156
-31 208 -38 330 -40 205 -4 353 30 550 125 289 140 541 377 884 830 65 85 139
187 166 225 27 39 52 72 55 75 16 15 198 304 270 430 92 161 215 409 284 572
53 125 179 459 174 462 -2 1 -23 11 -48 22 -341 147 -701 438 -951 768 -221
292 -367 680 -406 1081 -10 101 -10 395 -1 500 14 149 57 347 108 490 124 351
309 618 620 901 55 49 252 195 337 249 35 22 63 43 63 46 0 3 -14 24 -30 45
-17 22 -41 52 -53 68 -212 279 -566 545 -917 689 -155 64 -391 135 -535 161
-16 3 -39 8 -50 10 -30 6 -93 15 -150 22 -27 3 -59 8 -70 10 -49 9 -330 25
-338 18z"/>
</g>
</svg>
